<?xml version="1.0" encoding="iso-8859-1"?>
<!-- Generator: Adobe Illustrator 19.0.0, SVG Export Plug-In . SVG Version: 6.00 Build 0)  -->
<svg version="1.1" id="Capa_1"
  xmlns="http://www.w3.org/2000/svg"
  xmlns:xlink="http://www.w3.org/1999/xlink" x="0px" y="0px" viewBox="0 0 487.95 487.95" style="enable-background: new 0 0 487.95 487.95" xml:space="preserve">
  <g>
    <g>
      <path d="M 481.8 453 l -140 -140.1 c 27.6 -33.1 44.2 -75.4 44.2 -121.6 C 386 85.9 299.5 0.2 193.1 0.2 S 0 86 0 191.4 s 86.5 191.1 192.9 191.1 c 45.2 0 86.8 -15.5 119.8 -41.4 l 140.5 140.5 c 8.2 8.2 20.4 8.2 28.6 0 C 490 473.4 490 461.2 481.8 453 z M 41 191.4 c 0 -82.8 68.2 -150.1 151.9 -150.1 s 151.9 67.3 151.9 150.1 s -68.2 150.1 -151.9 150.1 S 41 274.1 41 191.4 z"/>
    </g>
  </g>
</svg>
